# xmcd
#
# Track frame offsets: 
#        150
#        16208
#        30532
#        45052
#        59360
#        76217
#        92346
#        104041
#        120354
#        133730
#        149287
#        164585
#        182875
#        197204
#        212434
#        228241
#        244471
#        259354
#        274569
#        290581
#
# Disc length: 4053 seconds
#
# Revision: 0
# Processed by: cddbd v1.5.2PL0 Copyright (c) Steve Scherf et al.
# Submitted via: ExactAudioCopy v0.95b4
#
DISCID=1a0fd314
DTITLE=Hansi Hinterseer - Die Grosse Hitkollektion CD1
DYEAR=2009
DGENRE=Alt. Rock
TTITLE0=Hoch Auf Dem Wilden Kaiser
TTITLE1=Da Wo Die Berge Sind
TTITLE2=Ich Fühl Mich Wohl In Tirol
TTITLE3=Verlier Die Hoffnung Nie
TTITLE4=Ich Lieb Die Schönheit Meiner Berge
TTITLE5=Männer Aus Den Bergen
TTITLE6=Grüß Euch Gott
TTITLE7=Es Ist Alles Nur Gehliehen
TTITLE8=Das Paradies Auf Erden
TTITLE9=Beim Alpenglühn Und Edelweiß
TTITLE10=In Den Schönen Tiroler Bergen
TTITLE11=Schäfersbuam
TTITLE12=Stella Maria
TTITLE13=Tiroler Berge
TTITLE14=Wenn Alle Kinderherzen Höher Schlagen
TTITLE15=Vater Und Tochter
TTITLE16=Der Alte Silbermond
TTITLE17=Wenn Ich An Meine Heimat Denke
TTITLE18=Denn Wenn Die Rosen Blühen
TTITLE19=So Ein Schöner Tag
EXTD=
EXTT0=
EXTT1=
EXTT2=
EXTT3=
EXTT4=
EXTT5=
EXTT6=
EXTT7=
EXTT8=
EXTT9=
EXTT10=
EXTT11=
EXTT12=
EXTT13=
EXTT14=
EXTT15=
EXTT16=
EXTT17=
EXTT18=
EXTT19=
PLAYORDER=
